<svg width="198" height="49" viewBox="0 0 198 49" fill="none" xmlns="http://www.w3.org/2000/svg">
<path d="M51.2508 34.8569C49.8151 34.9016 48.3904 34.5943 47.1021 33.9622C45.9759 33.3626 45.0491 32.45 44.4346 31.3354L47.7492 29.4816C48.0518 30.0524 48.5105 30.5264 49.0722 30.8487C49.6793 31.1473 50.351 31.2924 51.0279 31.271C51.4514 31.2799 51.8736 31.2219 52.2789 31.0992C52.59 31.0033 52.8719 30.831 53.0986 30.5982C53.2989 30.3795 53.4071 30.0925 53.4006 29.7966C53.4026 29.5958 53.3431 29.3993 53.2301 29.233C53.117 29.0668 52.9558 28.9388 52.7679 28.8661C52.2571 28.6412 51.7213 28.4778 51.1717 28.3794C50.5317 28.2577 49.8415 28.1074 49.1081 27.9428C48.3882 27.7832 47.6887 27.5431 47.023 27.227C46.3789 26.9198 45.8281 26.4481 45.4268 25.86C44.9821 25.1386 44.7665 24.3004 44.8085 23.4551C44.7968 22.544 45.068 21.6516 45.585 20.8998C46.1415 20.1184 46.899 19.5003 47.7779 19.1105C48.8333 18.6507 49.9768 18.426 51.1285 18.452C52.1272 18.4297 53.1214 18.5898 54.0621 18.9244C54.82 19.2018 55.5197 19.6168 56.1256 20.1483C56.6621 20.6184 57.1059 21.184 57.4342 21.816L54.1268 23.6698C53.9098 23.1224 53.4977 22.6738 52.9692 22.4101C52.4283 22.136 51.8289 21.996 51.222 22.0021C50.8881 21.9978 50.5564 22.056 50.2441 22.1739C49.9671 22.2659 49.7191 22.4288 49.5251 22.6463C49.3577 22.8471 49.2684 23.1011 49.2735 23.362C49.2716 23.5681 49.3305 23.7703 49.443 23.9433C49.5555 24.1164 49.7166 24.2527 49.9062 24.3354C50.4085 24.5879 50.9469 24.7617 51.5024 24.8508C52.1567 24.9796 52.8469 25.1227 53.5875 25.2945C54.3031 25.4451 54.9965 25.6856 55.6511 26.0103C56.2894 26.3262 56.8382 26.7962 57.2473 27.3773C57.7 28.0666 57.9215 28.881 57.88 29.7035C57.9032 30.6862 57.5801 31.6459 56.9669 32.4162C56.3225 33.2083 55.4861 33.8241 54.5366 34.2056C53.4982 34.6462 52.3795 34.8679 51.2508 34.8569Z" fill="black"/>
<path d="M79.8816 18.2943C81.374 18.2359 82.8503 18.6195 84.1237 19.3966C85.2261 20.0973 86.1121 21.0883 86.6834 22.2596C87.2728 23.5058 87.5703 24.869 87.5534 26.2463V34.413H83.0668V27.0336C83.0767 26.2789 82.9551 25.5281 82.7073 24.8148C82.4857 24.1896 82.0921 23.639 81.5712 23.2258C80.9879 22.8106 80.2817 22.6014 79.5652 22.6318C78.8572 22.5982 78.1583 22.8024 77.5808 23.2115C77.0579 23.6137 76.6673 24.1619 76.4591 24.7862C76.2118 25.4751 76.0877 26.2018 76.0924 26.9334V34.3772H71.613V26.9978C71.6246 26.2459 71.5054 25.4976 71.2607 24.7862C71.0573 24.1557 70.6599 23.6048 70.1247 23.2115C69.5442 22.8083 68.8475 22.6048 68.1402 22.6318C67.4185 22.5959 66.7061 22.8054 66.1198 23.2258C65.6055 23.639 65.2212 24.1905 65.0125 24.8148C64.7794 25.5067 64.6628 26.2322 64.6674 26.962V34.413H60.188V26.2749C60.1707 24.9045 60.4605 23.5474 61.0364 22.3025C61.5883 21.1137 62.4686 20.1058 63.5745 19.3966C64.8412 18.6225 66.3098 18.2389 67.7951 18.2943C68.9954 18.2585 70.1873 18.5037 71.2751 19.0101C72.2144 19.4636 73.0048 20.1735 73.5543 21.0571C74.1017 21.9729 74.3899 23.0191 74.3884 24.0847H73.3746C73.3726 23.0121 73.6795 21.9614 74.2589 21.0571C74.8306 20.1817 75.6276 19.4748 76.567 19.0101C77.5992 18.5134 78.7353 18.268 79.8816 18.2943Z" fill="black"/>
<path d="M110.216 18.2944C111.709 18.2373 113.185 18.6208 114.459 19.3967C115.561 20.0974 116.447 21.0884 117.018 22.2597C117.605 23.5065 117.9 24.8696 117.881 26.2464V34.4131H113.402V27.0337C113.412 26.279 113.29 25.5282 113.042 24.8149C112.82 24.1879 112.424 23.6368 111.899 23.2259C111.305 22.8432 110.612 22.6396 109.904 22.6396C109.196 22.6396 108.503 22.8432 107.908 23.2259C107.39 23.6322 107 24.179 106.787 24.8006C106.542 25.4899 106.42 26.2167 106.427 26.9478V34.3916H101.941V26.9979C101.951 26.2467 101.834 25.499 101.596 24.7863C101.39 24.1571 100.993 23.6069 100.46 23.2116C99.8791 22.8084 99.1824 22.6049 98.4751 22.6319C97.7533 22.5949 97.0405 22.8045 96.4547 23.2259C95.9383 23.6372 95.5535 24.1893 95.3474 24.8149C95.1143 25.5068 94.9977 26.2323 95.0023 26.9621V34.4131H90.5157V26.275C90.5006 24.904 90.7929 23.5469 91.3713 22.3026C91.9232 21.1138 92.8035 20.1059 93.9094 19.3967C95.1739 18.6235 96.6398 18.24 98.1228 18.2944C99.3254 18.2586 100.52 18.5037 101.61 19.0102C102.547 19.4638 103.335 20.1739 103.882 21.0572C104.435 21.971 104.726 23.0181 104.723 24.0848H103.709C103.708 23.0122 104.014 21.9615 104.594 21.0572C105.166 20.1818 105.963 19.4749 106.902 19.0102C107.934 18.5135 109.07 18.2681 110.216 18.2944Z" fill="black"/>
<path d="M125.963 34.413H121.512V11.6952H125.992V23.2903H123.885C123.955 22.4089 124.293 21.5698 124.856 20.8854C125.483 20.1149 126.283 19.5019 127.192 19.096C128.194 18.6398 129.284 18.4101 130.385 18.4232C131.782 18.3728 133.166 18.7019 134.39 19.3752C135.461 20.0118 136.31 20.9615 136.82 22.095C137.4 23.4336 137.68 24.8821 137.64 26.3394V34.413H133.16V26.776C133.167 26.0765 133.033 25.3827 132.765 24.7361C132.517 24.1294 132.106 23.6021 131.578 23.2116C131.023 22.8123 130.35 22.6083 129.666 22.6318C128.976 22.6201 128.297 22.8065 127.71 23.1686C127.137 23.5264 126.682 24.0441 126.401 24.6574C126.089 25.33 125.932 26.0636 125.941 26.8046L125.963 34.413Z" fill="black"/>
<path d="M148.345 30.5193C149.044 30.543 149.73 30.3256 150.287 29.9038C150.814 29.4759 151.212 28.9111 151.437 28.2719C151.696 27.5607 151.825 26.8094 151.818 26.0531V18.8956H156.298V26.6257C156.315 28.059 156.007 29.4779 155.399 30.777C154.817 32.0032 153.891 33.035 152.731 33.7474C151.387 34.4659 149.885 34.842 148.36 34.842C146.834 34.842 145.332 34.4659 143.988 33.7474C142.829 33.035 141.902 32.0032 141.321 30.777C140.71 29.4785 140.403 28.0592 140.422 26.6257V18.8598H144.901V26.0889C144.902 26.8213 145.031 27.548 145.282 28.2361C145.505 28.8765 145.904 29.4419 146.433 29.868C146.975 30.3006 147.651 30.531 148.345 30.5193Z" fill="black"/>
<path d="M167.528 34.8567C166.021 34.8786 164.534 34.5085 163.214 33.7831C161.964 33.0982 160.923 32.0891 160.202 30.8629C159.452 29.5874 159.069 28.1316 159.094 26.6543V11.6952H163.581V23.5122L161.424 23.8844C161.426 22.9123 161.741 21.9664 162.323 21.186C162.925 20.3385 163.724 19.6485 164.652 19.1747C165.627 18.6717 166.711 18.4136 167.809 18.4232C169.3 18.3928 170.774 18.7479 172.087 19.4539C173.301 20.134 174.298 21.1412 174.963 22.3598C175.676 23.678 176.035 25.1573 176.005 26.6543C176.018 28.1039 175.632 29.5293 174.891 30.777C174.137 32.0455 173.058 33.0917 171.764 33.8085C170.471 34.5254 169.009 34.8871 167.528 34.8567ZM167.528 30.641C168.255 30.6573 168.971 30.4661 169.592 30.0899C170.191 29.7484 170.687 29.2543 171.03 28.6584C171.362 28.0527 171.535 27.3731 171.533 26.6829C171.538 25.9765 171.365 25.28 171.03 24.6574C170.695 24.0555 170.197 23.5595 169.592 23.2259C168.967 22.8608 168.253 22.675 167.528 22.6891C166.813 22.6769 166.109 22.8628 165.494 23.2259C164.892 23.5631 164.394 24.0582 164.056 24.6574C163.709 25.2763 163.531 25.9744 163.538 26.6829C163.536 27.3737 163.714 28.0532 164.054 28.6552C164.394 29.2573 164.885 29.7614 165.479 30.1185C166.097 30.4854 166.809 30.6668 167.528 30.641Z" fill="black"/>
<path d="M51.2508 34.8569C49.8151 34.9016 48.3904 34.5943 47.1021 33.9622C45.9759 33.3626 45.0491 32.45 44.4346 31.3354L47.7492 29.4816C48.0518 30.0524 48.5105 30.5264 49.0722 30.8487C49.6793 31.1473 50.351 31.2924 51.0279 31.271C51.4514 31.2799 51.8736 31.2219 52.2789 31.0992C52.59 31.0033 52.8719 30.831 53.0986 30.5982C53.2989 30.3795 53.4071 30.0925 53.4006 29.7966C53.4026 29.5958 53.3431 29.3993 53.2301 29.233C53.117 29.0668 52.9558 28.9388 52.7679 28.8661C52.2571 28.6412 51.7213 28.4778 51.1717 28.3794C50.5317 28.2577 49.8415 28.1074 49.1081 27.9428C48.3882 27.7832 47.6887 27.5431 47.023 27.227C46.3789 26.9198 45.8281 26.4481 45.4268 25.86C44.9821 25.1386 44.7665 24.3004 44.8085 23.4551C44.7968 22.544 45.068 21.6516 45.585 20.8998C46.1415 20.1184 46.899 19.5003 47.7779 19.1105C48.8333 18.6507 49.9768 18.426 51.1285 18.452C52.1272 18.4297 53.1214 18.5898 54.0621 18.9244C54.82 19.2018 55.5197 19.6168 56.1256 20.1483C56.6621 20.6184 57.1059 21.184 57.4342 21.816L54.1268 23.6698C53.9098 23.1224 53.4977 22.6738 52.9692 22.4101C52.4283 22.136 51.8289 21.996 51.222 22.0021C50.8881 21.9978 50.5564 22.056 50.2441 22.1739C49.9671 22.2659 49.7191 22.4288 49.5251 22.6463C49.3577 22.8471 49.2684 23.1011 49.2735 23.362C49.2716 23.5681 49.3305 23.7703 49.443 23.9433C49.5555 24.1164 49.7166 24.2527 49.9062 24.3354C50.4085 24.5879 50.9469 24.7617 51.5024 24.8508C52.1567 24.9796 52.8469 25.1227 53.5875 25.2945C54.3031 25.4451 54.9965 25.6856 55.6511 26.0103C56.2894 26.3262 56.8382 26.7962 57.2473 27.3773C57.7 28.0666 57.9215 28.881 57.88 29.7035C57.9032 30.6862 57.5801 31.6459 56.9669 32.4162C56.3225 33.2083 55.4861 33.8241 54.5366 34.2056C53.4982 34.6462 52.3795 34.8679 51.2508 34.8569Z" fill="#333333"/>
<path d="M79.8816 18.2943C81.374 18.2359 82.8503 18.6195 84.1237 19.3966C85.2261 20.0973 86.1121 21.0883 86.6834 22.2596C87.2728 23.5058 87.5703 24.869 87.5534 26.2463V34.413H83.0668V27.0336C83.0767 26.2789 82.9551 25.5281 82.7073 24.8148C82.4857 24.1896 82.0921 23.639 81.5712 23.2258C80.9879 22.8106 80.2817 22.6014 79.5652 22.6318C78.8572 22.5982 78.1583 22.8024 77.5808 23.2115C77.0579 23.6137 76.6673 24.1619 76.4591 24.7862C76.2118 25.4751 76.0877 26.2018 76.0924 26.9334V34.3772H71.613V26.9978C71.6246 26.2459 71.5054 25.4976 71.2607 24.7862C71.0573 24.1557 70.6599 23.6048 70.1247 23.2115C69.5442 22.8083 68.8475 22.6048 68.1402 22.6318C67.4185 22.5959 66.7061 22.8054 66.1198 23.2258C65.6055 23.639 65.2212 24.1905 65.0125 24.8148C64.7794 25.5067 64.6628 26.2322 64.6674 26.962V34.413H60.188V26.2749C60.1707 24.9045 60.4605 23.5474 61.0364 22.3025C61.5883 21.1137 62.4686 20.1058 63.5745 19.3966C64.8412 18.6225 66.3098 18.2389 67.7951 18.2943C68.9954 18.2585 70.1873 18.5037 71.2751 19.0101C72.2144 19.4636 73.0048 20.1735 73.5543 21.0571C74.1017 21.9729 74.3899 23.0191 74.3884 24.0847H73.3746C73.3726 23.0121 73.6795 21.9614 74.2589 21.0571C74.8306 20.1817 75.6276 19.4748 76.567 19.0101C77.5992 18.5134 78.7353 18.268 79.8816 18.2943Z" fill="#333333"/>
<path d="M110.216 18.2944C111.709 18.2373 113.185 18.6208 114.459 19.3967C115.561 20.0974 116.447 21.0884 117.018 22.2597C117.605 23.5065 117.9 24.8696 117.881 26.2464V34.4131H113.402V27.0337C113.412 26.279 113.29 25.5282 113.042 24.8149C112.82 24.1879 112.424 23.6368 111.899 23.2259C111.305 22.8432 110.612 22.6396 109.904 22.6396C109.196 22.6396 108.503 22.8432 107.908 23.2259C107.39 23.6322 107 24.179 106.787 24.8006C106.542 25.4899 106.42 26.2167 106.427 26.9478V34.3916H101.941V26.9979C101.951 26.2467 101.834 25.499 101.596 24.7863C101.39 24.1571 100.993 23.6069 100.46 23.2116C99.8791 22.8084 99.1824 22.6049 98.4751 22.6319C97.7533 22.5949 97.0405 22.8045 96.4547 23.2259C95.9383 23.6372 95.5535 24.1893 95.3474 24.8149C95.1143 25.5068 94.9977 26.2323 95.0023 26.9621V34.4131H90.5157V26.275C90.5006 24.904 90.7929 23.5469 91.3713 22.3026C91.9232 21.1138 92.8035 20.1059 93.9094 19.3967C95.1739 18.6235 96.6398 18.24 98.1228 18.2944C99.3254 18.2586 100.52 18.5037 101.61 19.0102C102.547 19.4638 103.335 20.1739 103.882 21.0572C104.435 21.971 104.726 23.0181 104.723 24.0848H103.709C103.708 23.0122 104.014 21.9615 104.594 21.0572C105.166 20.1818 105.963 19.4749 106.902 19.0102C107.934 18.5135 109.07 18.2681 110.216 18.2944Z" fill="#333333"/>
<path d="M125.963 34.413H121.512V11.6952H125.992V23.2903H123.885C123.955 22.4089 124.293 21.5698 124.856 20.8854C125.483 20.1149 126.283 19.5019 127.192 19.096C128.194 18.6398 129.284 18.4101 130.385 18.4232C131.782 18.3728 133.166 18.7019 134.39 19.3752C135.461 20.0118 136.31 20.9615 136.82 22.095C137.4 23.4336 137.68 24.8821 137.64 26.3394V34.413H133.16V26.776C133.167 26.0765 133.033 25.3827 132.765 24.7361C132.517 24.1294 132.106 23.6021 131.578 23.2116C131.023 22.8123 130.35 22.6083 129.666 22.6318C128.976 22.6201 128.297 22.8065 127.71 23.1686C127.137 23.5264 126.682 24.0441 126.401 24.6574C126.089 25.33 125.932 26.0636 125.941 26.8046L125.963 34.413Z" fill="#333333"/>
<path d="M148.345 30.5193C149.044 30.543 149.73 30.3256 150.287 29.9038C150.814 29.4759 151.212 28.9111 151.437 28.2719C151.696 27.5607 151.825 26.8094 151.818 26.0531V18.8956H156.298V26.6257C156.315 28.059 156.007 29.4779 155.399 30.777C154.817 32.0032 153.891 33.035 152.731 33.7474C151.387 34.4659 149.885 34.842 148.36 34.842C146.834 34.842 145.332 34.4659 143.988 33.7474C142.829 33.035 141.902 32.0032 141.321 30.777C140.71 29.4785 140.403 28.0592 140.422 26.6257V18.8598H144.901V26.0889C144.902 26.8213 145.031 27.548 145.282 28.2361C145.505 28.8765 145.904 29.4419 146.433 29.868C146.975 30.3006 147.651 30.531 148.345 30.5193Z" fill="#333333"/>
<path d="M167.528 34.8567C166.021 34.8786 164.534 34.5085 163.214 33.7831C161.964 33.0982 160.923 32.0891 160.202 30.8629C159.452 29.5874 159.069 28.1316 159.094 26.6543V11.6952H163.581V23.5122L161.424 23.8844C161.426 22.9123 161.741 21.9664 162.323 21.186C162.925 20.3385 163.724 19.6485 164.652 19.1747C165.627 18.6717 166.711 18.4136 167.809 18.4232C169.3 18.3928 170.774 18.7479 172.087 19.4539C173.301 20.134 174.298 21.1412 174.963 22.3598C175.676 23.678 176.035 25.1573 176.005 26.6543C176.018 28.1039 175.632 29.5293 174.891 30.777C174.137 32.0455 173.058 33.0917 171.764 33.8085C170.471 34.5254 169.009 34.8871 167.528 34.8567ZM167.528 30.641C168.255 30.6573 168.971 30.4661 169.592 30.0899C170.191 29.7484 170.687 29.2543 171.03 28.6584C171.362 28.0527 171.535 27.3731 171.533 26.6829C171.538 25.9765 171.365 25.28 171.03 24.6574C170.695 24.0555 170.197 23.5595 169.592 23.2259C168.967 22.8608 168.253 22.675 167.528 22.6891C166.813 22.6769 166.109 22.8628 165.494 23.2259C164.892 23.5631 164.394 24.0582 164.056 24.6574C163.709 25.2763 163.531 25.9744 163.538 26.6829C163.536 27.3737 163.714 28.0532 164.054 28.6552C164.394 29.2573 164.885 29.7614 165.479 30.1185C166.097 30.4854 166.809 30.6668 167.528 30.641Z" fill="#333333"/>
<path d="M179.105 35.0286C178.859 35.0222 178.618 34.953 178.407 34.8277C178.195 34.7024 178.02 34.5251 177.897 34.3129C177.804 34.1567 177.744 33.9838 177.719 33.8042C177.694 33.6246 177.706 33.4419 177.752 33.2668C177.799 33.0916 177.881 32.9274 177.992 32.7839C178.103 32.6403 178.242 32.5201 178.4 32.4304C178.617 32.3003 178.866 32.2333 179.119 32.2372C179.372 32.2317 179.622 32.2988 179.838 32.4304C180.044 32.5493 180.215 32.7195 180.334 32.9243C180.452 33.1367 180.515 33.3757 180.515 33.6186C180.515 33.8615 180.452 34.1004 180.334 34.3129C180.215 34.5197 180.044 34.6923 179.838 34.8139C179.62 34.9557 179.365 35.0304 179.105 35.0286Z" fill="black"/>
<path d="M183.656 25.9101C183.405 25.914 183.157 25.8523 182.937 25.7312C182.724 25.6133 182.549 25.4369 182.433 25.223C182.309 25.0048 182.245 24.758 182.247 24.5073C182.24 24.2559 182.305 24.0079 182.433 23.7915C182.551 23.5792 182.725 23.4034 182.937 23.2833C183.155 23.1577 183.404 23.0934 183.656 23.0972C183.908 23.0908 184.157 23.1553 184.375 23.2833C184.585 23.4054 184.758 23.5807 184.878 23.7915C185 24.0104 185.062 24.2571 185.058 24.5073C185.06 24.7571 184.998 25.0033 184.878 25.223C184.761 25.4353 184.586 25.6111 184.375 25.7312C184.155 25.8523 183.907 25.914 183.656 25.9101ZM182.534 27.0696H184.785V34.857H182.549L182.534 27.0696Z" fill="black"/>
<path d="M190.415 35.0717C189.674 35.0827 188.945 34.8984 188.299 34.5376C187.654 34.1768 187.116 33.6523 186.74 33.0175C186.373 32.3919 186.18 31.6805 186.18 30.9561C186.18 30.2317 186.373 29.5203 186.74 28.8948C187.115 28.2792 187.639 27.7673 188.265 27.406C188.925 27.0413 189.667 26.8499 190.422 26.8499C191.177 26.8499 191.919 27.0413 192.579 27.406C193.214 27.7614 193.748 28.2711 194.132 28.8876C194.499 29.5118 194.692 30.2221 194.692 30.9454C194.692 31.6687 194.499 32.379 194.132 33.0032C193.763 33.6249 193.237 34.1404 192.608 34.4991C191.942 34.8844 191.184 35.0824 190.415 35.0717ZM190.415 32.9817C190.778 32.9872 191.136 32.8931 191.45 32.7097C191.743 32.5316 191.99 32.2862 192.169 31.994C192.342 31.6885 192.432 31.3428 192.428 30.9919C192.431 30.6388 192.342 30.291 192.169 29.9827C191.99 29.6905 191.743 29.4451 191.45 29.267C191.138 29.0804 190.779 28.986 190.415 28.995C190.055 28.9872 189.701 29.0815 189.394 29.267C189.093 29.4471 188.845 29.7025 188.675 30.0077C188.505 30.3129 188.418 30.6572 188.423 31.0062C188.421 31.3548 188.509 31.698 188.679 32.0027C188.849 32.3074 189.095 32.5632 189.394 32.7455C189.707 32.9103 190.06 32.987 190.415 32.9674V32.9817Z" fill="black"/>
<path d="M179.105 35.0286C178.859 35.0222 178.618 34.953 178.407 34.8277C178.195 34.7024 178.02 34.5251 177.897 34.3129C177.804 34.1567 177.744 33.9838 177.719 33.8042C177.694 33.6246 177.706 33.4419 177.752 33.2668C177.799 33.0916 177.881 32.9274 177.992 32.7839C178.103 32.6403 178.242 32.5201 178.4 32.4304C178.617 32.3003 178.866 32.2333 179.119 32.2372C179.372 32.2317 179.622 32.2988 179.838 32.4304C180.044 32.5493 180.215 32.7195 180.334 32.9243C180.452 33.1367 180.515 33.3757 180.515 33.6186C180.515 33.8615 180.452 34.1004 180.334 34.3129C180.215 34.5197 180.044 34.6923 179.838 34.8139C179.62 34.9557 179.365 35.0304 179.105 35.0286Z" fill="url(#paint0_linear)"/>
<path d="M183.656 25.9101C183.405 25.914 183.157 25.8523 182.937 25.7312C182.724 25.6133 182.549 25.4369 182.433 25.223C182.309 25.0048 182.245 24.758 182.247 24.5073C182.24 24.2559 182.305 24.0079 182.433 23.7915C182.551 23.5792 182.725 23.4034 182.937 23.2833C183.155 23.1577 183.404 23.0934 183.656 23.0972C183.908 23.0908 184.157 23.1553 184.375 23.2833C184.585 23.4054 184.758 23.5807 184.878 23.7915C185 24.0104 185.062 24.2571 185.058 24.5073C185.06 24.7571 184.998 25.0033 184.878 25.223C184.761 25.4353 184.586 25.6111 184.375 25.7312C184.155 25.8523 183.907 25.914 183.656 25.9101ZM182.534 27.0696H184.785V34.857H182.549L182.534 27.0696Z" fill="url(#paint1_linear)"/>
<path d="M190.415 35.0717C189.674 35.0827 188.945 34.8984 188.299 34.5376C187.654 34.1768 187.116 33.6523 186.74 33.0175C186.373 32.3919 186.18 31.6805 186.18 30.9561C186.18 30.2317 186.373 29.5203 186.74 28.8948C187.115 28.2792 187.639 27.7673 188.265 27.406C188.925 27.0413 189.667 26.8499 190.422 26.8499C191.177 26.8499 191.919 27.0413 192.579 27.406C193.214 27.7614 193.748 28.2711 194.132 28.8876C194.499 29.5118 194.692 30.2221 194.692 30.9454C194.692 31.6687 194.499 32.379 194.132 33.0032C193.763 33.6249 193.237 34.1404 192.608 34.4991C191.942 34.8844 191.184 35.0824 190.415 35.0717ZM190.415 32.9817C190.778 32.9872 191.136 32.8931 191.45 32.7097C191.743 32.5316 191.99 32.2862 192.169 31.994C192.342 31.6885 192.432 31.3428 192.428 30.9919C192.431 30.6388 192.342 30.291 192.169 29.9827C191.99 29.6905 191.743 29.4451 191.45 29.267C191.138 29.0804 190.779 28.986 190.415 28.995C190.055 28.9872 189.701 29.0815 189.394 29.267C189.093 29.4471 188.845 29.7025 188.675 30.0077C188.505 30.3129 188.418 30.6572 188.423 31.0062C188.421 31.3548 188.509 31.698 188.679 32.0027C188.849 32.3074 189.095 32.5632 189.394 32.7455C189.707 32.9103 190.06 32.987 190.415 32.9674V32.9817Z" fill="url(#paint2_linear)"/>
<path opacity="0.5" d="M26.3444 7.06436L15.5593 17.8006L11.7198 21.6226C11.2048 22.1365 10.9155 22.8328 10.9155 23.5587C10.9155 24.2847 11.2048 24.9809 11.7198 25.4948C12.236 26.0075 12.9355 26.2954 13.6647 26.2954C14.3939 26.2954 15.0934 26.0075 15.6096 25.4948L17.8241 23.2903L19.4131 21.6942C20.4248 20.6853 21.7976 20.1177 23.2296 20.1164C24.6616 20.115 26.0355 20.68 27.049 21.6871C28.0625 22.6941 28.6327 24.0607 28.634 25.4862C28.6354 26.9117 28.0678 28.2794 27.0562 29.2883L12.4819 43.8036L16.3646 47.6687L30.9172 33.1605C32.2711 31.8211 33.2471 30.1507 33.7472 28.3171C34.2474 26.4835 34.2541 24.5511 33.7667 22.714C33.2793 20.877 32.3149 19.1999 30.9705 17.8513C29.626 16.5026 27.9487 15.5298 26.1071 15.0306L30.2342 10.9222L26.3444 7.06436Z" fill="url(#paint3_linear)"/>
<path d="M23.0082 29.5817L24.9136 27.6849C25.1898 27.4355 25.4123 27.1329 25.5675 26.7953C25.7227 26.4577 25.8075 26.0923 25.8166 25.7212C25.8257 25.35 25.7589 24.9809 25.6204 24.6363C25.4819 24.2916 25.2745 23.9785 25.0108 23.716C24.7471 23.4534 24.4326 23.247 24.0863 23.1091C23.7401 22.9712 23.3693 22.9048 22.9965 22.9139C22.6236 22.9229 22.2565 23.0073 21.9174 23.1618C21.5783 23.3163 21.2743 23.5378 21.0238 23.8127L17.2562 27.6134C16.2435 28.6065 14.8782 29.1621 13.4566 29.1595C12.035 29.1569 10.6718 28.5963 9.66276 27.5994C8.65376 26.6025 8.08037 25.2497 8.06704 23.8347C8.05372 22.4196 8.60151 21.0563 9.59156 20.0408L24.4462 5.19618L20.5564 1.33115L5.70174 16.1471C4.34962 17.4878 3.37586 19.1592 2.87835 20.9933C2.38084 22.8274 2.3771 24.7595 2.86752 26.5955C3.35793 28.4315 4.32522 30.1066 5.67214 31.4525C7.01907 32.7983 8.69817 33.7675 10.5407 34.2626L6.72273 38.0704L10.6054 41.9354L21.11 31.4927L23.0082 29.5817Z" fill="url(#paint4_linear)"/>
<defs>
<linearGradient id="paint0_linear" x1="177.717" y1="29.1022" x2="194.664" y2="29.1022" gradientUnits="userSpaceOnUse">
<stop stop-color="#8190EB"/>
<stop offset="1" stop-color="#4F61FB"/>
</linearGradient>
<linearGradient id="paint1_linear" x1="177.717" y1="29.1024" x2="194.664" y2="29.1024" gradientUnits="userSpaceOnUse">
<stop stop-color="#8190EB"/>
<stop offset="1" stop-color="#4F61FB"/>
</linearGradient>
<linearGradient id="paint2_linear" x1="177.717" y1="29.1023" x2="194.664" y2="29.1023" gradientUnits="userSpaceOnUse">
<stop stop-color="#8190EB"/>
<stop offset="1" stop-color="#4F61FB"/>
</linearGradient>
<linearGradient id="paint3_linear" x1="10.9145" y1="27.3701" x2="34.1312" y2="27.3701" gradientUnits="userSpaceOnUse">
<stop offset="0.18" stop-color="#A262EB"/>
<stop offset="0.91" stop-color="#4F61FB"/>
</linearGradient>
<linearGradient id="paint4_linear" x1="17" y1="-1.99991" x2="-7.5" y2="25.0001" gradientUnits="userSpaceOnUse">
<stop stop-color="#4F61E5"/>
<stop offset="1" stop-color="#A162E5"/>
</linearGradient>
</defs>
</svg>
